<svg width="81" height="81" viewBox="0 0 81 81" fill="none" xmlns="http://www.w3.org/2000/svg">
<path d="M49.9987 33.7505H76.6787C77.5592 33.7505 78.4037 33.397 79.0263 32.7679C79.6489 32.1388 79.9987 31.2856 79.9987 30.3959C79.9987 22.3565 76.838 14.6464 71.2119 8.9617C65.5858 3.277 57.9552 0.083374 49.9987 0.083374C49.1182 0.083374 48.2737 0.436802 47.6511 1.06591C47.0285 1.69502 46.6787 2.54827 46.6787 3.43796V30.3959C46.6787 31.2856 47.0285 32.1388 47.6511 32.7679C48.2737 33.397 49.1182 33.7505 49.9987 33.7505ZM53.3187 7.07546C58.3047 7.80056 62.9243 10.1375 66.4863 13.7366C70.0483 17.3356 72.3611 22.0033 73.0787 27.0413H53.3187V7.07546Z" fill="#3D3D3D"/>
<path d="M76.3181 40.4999H43.7181C43.2401 40.4999 42.7667 40.4047 42.3251 40.2199C41.8835 40.0351 41.4822 39.7642 41.1442 39.4226C40.8062 39.0811 40.5381 38.6756 40.3552 38.2294C40.1722 37.7832 40.0781 37.3049 40.0781 36.8219V3.80153C40.0812 3.27728 39.9745 2.7583 39.765 2.27864C39.5556 1.79899 39.2482 1.3695 38.8629 1.01837C38.4776 0.667237 38.0232 0.402396 37.5295 0.241226C37.0357 0.0800567 36.5139 0.0262017 35.9981 0.0831955C28.4891 0.888836 21.3591 3.82567 15.4328 8.55408C9.50643 13.2825 5.02575 19.6093 2.5089 26.8029C-0.00794411 33.9965 -0.458149 41.763 1.21035 49.2043C2.87885 56.6456 6.5979 63.4577 11.9374 68.8528C17.2769 74.248 24.0188 78.0057 31.3834 79.6916C38.7479 81.3775 46.4344 80.9226 53.5538 78.3795C60.6733 75.8365 66.9349 71.3091 71.6145 65.321C76.2942 59.333 79.2007 52.1287 79.9981 44.5415C80.0425 44.0267 79.9803 43.5082 79.8154 43.0191C79.6505 42.53 79.3865 42.0809 79.0402 41.7006C78.694 41.3204 78.2731 41.0172 77.8044 40.8104C77.3357 40.6037 76.8295 40.4979 76.3181 40.4999Z" fill="#3D3D3D"/>
</svg>
