<svg width="80" height="81" viewBox="0 0 80 81" fill="none" xmlns="http://www.w3.org/2000/svg">
<path d="M68.96 14.5069H67.36L53.84 0.820384C53.3118 0.294628 52.6007 0 51.86 0C51.1193 0 50.4082 0.294628 49.88 0.820384C48.8 1.91369 48.8 3.69537 49.88 4.82916L59.44 14.5069H20.56L30.12 4.82916C31.2 3.73586 31.2 1.95418 30.12 0.820384C29.5918 0.294628 28.8807 0 28.14 0C27.3993 0 26.6882 0.294628 26.16 0.820384L12.68 14.5069H11.08C7.48 14.5069 0 14.5069 0 24.8731C0 28.8008 0.8 31.3924 2.48 33.0931C3.44 34.1054 4.6 34.6318 5.84 34.9152C7 35.1987 8.24 35.2392 9.44 35.2392H70.56C71.8 35.2392 72.96 35.1582 74.08 34.9152C77.44 34.1054 80 31.6758 80 24.8731C80 14.5069 72.52 14.5069 68.96 14.5069ZM68.36 40.5073H11.64C9.16 40.5073 7.28 42.7344 7.68 45.2044L11.04 66.0177C12.16 72.9824 15.16 81 28.48 81H50.92C64.4 81 66.8 74.1567 68.24 66.5036L72.28 45.3259C72.3942 44.7402 72.3786 44.1361 72.2343 43.5571C72.0901 42.9782 71.8208 42.4389 71.4459 41.978C71.071 41.5171 70.5997 41.1461 70.0661 40.8918C69.5325 40.6375 68.9498 40.5062 68.36 40.5073ZM51.52 56.9068L38.52 69.0546C37.96 69.581 37.24 69.8645 36.48 69.8645C35.72 69.8645 34.96 69.5811 34.36 68.9737L28.36 62.8998C27.8021 62.3283 27.4892 61.5571 27.4892 60.7536C27.4892 59.9501 27.8021 59.179 28.36 58.6075C29.56 57.4332 31.44 57.4332 32.64 58.6075L36.6 62.6163L47.48 52.4526C48.68 51.3188 50.6 51.3998 51.72 52.6146C52.84 53.8699 52.76 55.773 51.52 56.9068Z" fill="#3D3D3D"/>
</svg>
